<svg xmlns="http://www.w3.org/2000/svg" viewBox="0 0 1024 500">
  <defs>
    <linearGradient id="bg" x1="0%" y1="0%" x2="100%" y2="100%">
      <stop offset="0%" style="stop-color:#007AFF"/>
      <stop offset="100%" style="stop-color:#5856D6"/>
    </linearGradient>
  </defs>
  
  <!-- Background -->
  <rect width="1024" height="500" fill="url(#bg)"/>
  
  <!-- Pattern decorations -->
  <circle cx="100" cy="100" r="150" fill="white" opacity="0.05"/>
  <circle cx="950" cy="400" r="200" fill="white" opacity="0.05"/>
  
  <!-- Icon -->
  <g transform="translate(200, 250)">
    <path d="M-80 -100 L0 -120 L80 -100 L80 20 C80 72 0 112 0 112 C0 112 -80 72 -80 20 Z" 
          fill="white" 
          opacity="0.95"/>
    <g transform="translate(-40, -60)">
      <rect x="0" y="0" width="20" height="20" fill="#007AFF"/>
      <rect x="28" y="0" width="20" height="20" fill="#007AFF"/>
      <rect x="56" y="0" width="20" height="20" fill="#007AFF"/>
      <rect x="0" y="28" width="20" height="20" fill="#007AFF"/>
      <rect x="56" y="28" width="20" height="20" fill="#007AFF"/>
      <rect x="0" y="56" width="20" height="20" fill="#007AFF"/>
      <rect x="28" y="56" width="20" height="20" fill="#007AFF"/>
      <rect x="56" y="56" width="20" height="20" fill="#007AFF"/>
      <rect x="28" y="28" width="20" height="20" fill="#5856D6"/>
    </g>
  </g>
  
  <!-- Text -->
  <text x="380" y="220" 
        font-family="SF Pro Display, -apple-system, sans-serif" 
        font-size="72" 
        font-weight="700" 
        fill="white">Clube do Associado</text>
        
  <text x="380" y="290" 
        font-family="SF Pro Display, -apple-system, sans-serif" 
        font-size="36" 
        fill="rgba(255,255,255,0.9)">Seu QR Code de acesso digital</text>
        
  <text x="380" y="350" 
        font-family="SF Pro Display, -apple-system, sans-serif" 
        font-size="28" 
        fill="rgba(255,255,255,0.7)">✓ Acesso rápido  ✓ Mensalidades  ✓ Perfil</text>
</svg>
